<?xml version="1.0" standalone="no"?>
<!DOCTYPE svg PUBLIC "-//W3C//DTD SVG 20010904//EN"
 "http://www.w3.org/TR/2001/REC-SVG-20010904/DTD/svg10.dtd">
<svg version="1.0" xmlns="http://www.w3.org/2000/svg"
 width="260.000000pt" height="260.000000pt" viewBox="0 0 260.000000 260.000000"
 preserveAspectRatio="xMidYMid meet">
<metadata>
Created by potrace 1.11, written by Peter Selinger 2001-2013
</metadata>
<g transform="translate(0.000000,260.000000) scale(0.100000,-0.100000)"
fill="#000000" stroke="none">
<path d="M599 2237 c-45 -30 -58 -60 -60 -140 -2 -63 -3 -66 -19 -52 -28 25
-81 36 -115 25 -45 -16 -67 -53 -68 -116 -1 -30 -3 -54 -6 -54 -2 0 -13 7 -23
17 -35 32 -111 13 -128 -33 -6 -14 -10 -122 -10 -240 l0 -214 -37 0 c-50 0
-82 -18 -110 -59 -59 -87 0 -200 107 -204 l40 -2 0 -222 c0 -216 1 -223 23
-248 28 -32 76 -38 114 -15 l28 17 2 -52 c1 -64 14 -90 54 -110 37 -20 95 -12
124 15 l21 20 2 -72 c3 -82 21 -121 68 -143 44 -20 93 -19 131 5 58 35 58 33
58 425 1 198 4 365 7 371 5 7 175 10 505 10 l498 -1 1 -365 c0 -371 2 -389 38
-426 37 -37 106 -45 157 -18 42 21 67 83 64 157 -1 31 2 57 6 57 5 0 9 -4 9
-10 0 -25 82 -46 123 -31 46 18 63 56 66 150 1 23 2 23 20 7 38 -34 108 -25
130 18 7 13 12 103 14 240 l2 219 34 3 c80 6 131 56 131 129 0 82 -52 135
-132 135 l-38 0 0 224 c0 220 -1 225 -23 251 -27 32 -87 37 -116 11 -10 -9
-19 -16 -22 -16 -2 0 -4 21 -3 48 2 92 -38 130 -132 124 -12 -1 -33 -13 -47
-26 l-26 -24 3 61 c3 46 -1 73 -15 104 -43 91 -173 97 -224 10 -18 -30 -19
-56 -20 -397 l0 -365 -502 -3 c-277 -1 -503 1 -504 5 0 5 -2 172 -3 373 -1
406 0 401 -71 434 -46 22 -86 20 -126 -7z"/>
</g>
</svg>
